<?xml version="1.0" standalone="no"?>
<!DOCTYPE svg PUBLIC "-//W3C//DTD SVG 20010904//EN"
 "http://www.w3.org/TR/2001/REC-SVG-20010904/DTD/svg10.dtd">
<svg version="1.0" xmlns="http://www.w3.org/2000/svg"
 width="359.000000pt" height="359.000000pt" viewBox="0 0 359.000000 359.000000"
 preserveAspectRatio="xMidYMid meet">
<metadata>
Created by potrace 1.11, written by Peter Selinger 2001-2013
</metadata>
<g transform="translate(0.000000,359.000000) scale(0.100000,-0.100000)"
fill="#000000" stroke="none">
<path d="M1565 3156 c-16 -7 -48 -25 -69 -40 -21 -14 -47 -26 -58 -26 -11 0
-52 -11 -92 -24 -40 -14 -97 -26 -127 -27 -30 -1 -65 -6 -79 -11 -14 -6 -54
-15 -90 -22 -52 -10 -67 -17 -77 -37 -7 -13 -13 -19 -13 -14 0 6 -5 3 -10 -5
-5 -8 -7 -23 -4 -32 3 -10 1 -18 -5 -18 -6 0 -11 -9 -11 -20 0 -11 -5 -20 -11
-20 -5 0 -7 -5 -4 -10 4 -6 1 -9 -7 -8 -7 2 -14 -4 -14 -12 -1 -8 -2 -22 -3
-30 0 -8 -10 -21 -21 -27 -16 -11 -18 -10 -14 2 14 35 -8 11 -27 -30 -12 -25
-40 -67 -63 -93 -23 -26 -71 -83 -107 -127 -63 -77 -66 -83 -74 -150 -15 -140
-16 -197 -4 -211 20 -25 23 -135 5 -199 l-17 -58 33 -35 c52 -57 61 -62 94
-56 27 5 32 2 43 -24 11 -25 9 -35 -13 -77 -26 -49 -34 -95 -16 -95 6 0 10 5
10 10 0 14 32 12 50 -3 9 -7 26 -29 39 -50 33 -54 63 -71 111 -63 37 6 40 4
40 -17 0 -13 -5 -28 -11 -34 -6 -6 -8 -16 -5 -22 11 -17 45 -13 81 9 l33 20 5
-21 c6 -22 27 -18 27 6 0 16 27 28 35 15 4 -6 17 -10 30 -10 18 0 26 -7 31
-25 3 -14 14 -29 23 -34 12 -7 16 -26 18 -73 2 -77 15 -84 66 -31 l37 37 11
-32 c11 -34 36 -43 45 -17 4 8 10 12 16 9 5 -3 16 4 25 16 11 16 22 20 39 16
21 -6 27 -1 44 36 27 60 42 76 76 81 16 2 29 9 29 15 0 20 12 23 18 3 3 -13
-1 -21 -15 -24 -29 -8 -8 -41 50 -78 61 -39 79 -39 56 1 -23 37 -11 50 19 22
13 -12 43 -26 68 -31 24 -5 54 -13 67 -16 19 -6 21 -4 16 11 -4 11 -11 24 -16
31 -11 13 0 12 61 -6 37 -12 51 -7 51 15 0 11 6 14 20 10 11 -3 29 -9 40 -12
28 -8 44 4 29 22 -16 20 -5 28 19 15 15 -8 21 -8 24 1 3 7 11 9 24 3 10 -4 24
-9 29 -10 6 0 18 -5 28 -9 9 -5 32 -5 50 -1 81 16 278 20 336 5 37 -9 46 -8
62 6 21 19 34 13 59 -28 16 -27 19 -28 24 -11 4 11 2 51 -3 88 -9 63 -8 70 10
83 13 9 18 20 14 33 -9 28 12 49 49 49 45 0 58 -13 58 -56 0 -21 5 -49 11 -63
5 -15 9 -30 8 -34 -1 -4 5 -17 13 -29 8 -11 12 -26 10 -33 -3 -6 3 -18 12 -26
16 -13 17 -5 11 132 -5 122 -10 158 -32 220 -14 41 -28 81 -31 90 -4 12 3 20
24 27 16 6 53 38 82 72 l51 63 -4 96 c-6 127 -40 339 -61 378 -9 18 -16 50
-16 72 0 31 -6 46 -27 66 -24 22 -28 32 -27 80 1 50 0 55 -20 55 -20 0 -24 8
-35 80 -8 44 -18 80 -23 80 -5 0 -7 -8 -3 -19 3 -11 -2 -28 -14 -42 -23 -28
-38 -20 -21 11 6 12 10 23 8 25 -2 2 -45 -3 -96 -12 -96 -16 -113 -14 -93 11
20 24 108 77 130 79 27 2 27 14 1 22 -11 3 -27 14 -36 23 -15 15 -21 15 -76 0
l-60 -15 4 53 5 54 -41 10 c-23 6 -64 17 -92 25 -68 20 -113 19 -168 -4 -52
-23 -222 -30 -269 -12 -15 6 -39 14 -52 17 -13 3 -27 15 -30 25 -6 18 -18 19
-158 19 -103 -1 -162 -5 -182 -14z m385 -86 c0 -5 -5 -10 -11 -10 -5 0 -7 5
-4 10 3 6 8 10 11 10 2 0 4 -4 4 -10z m-765 -103 c22 -11 44 -26 48 -33 4 -8
13 -14 18 -14 6 0 7 6 3 13 -5 7 -1 7 12 -3 29 -22 30 -24 13 -18 -11 4 -21
-6 -35 -38 -10 -24 -22 -44 -25 -44 -8 0 -26 40 -33 73 -4 15 -11 27 -17 27
-6 0 -8 -4 -4 -9 3 -5 1 -12 -4 -16 -6 -3 -8 -13 -5 -23 3 -9 -2 -6 -10 8 -10
16 -15 19 -16 10 0 -17 -69 58 -70 77 -1 28 59 24 125 -10z m1430 3 c-3 -5
-13 -10 -21 -10 -8 0 -12 5 -9 10 3 6 13 10 21 10 8 0 12 -4 9 -10z m-5 -60
c0 -5 -4 -10 -10 -10 -5 0 -10 5 -10 10 0 6 5 10 10 10 6 0 10 -4 10 -10z
m-25 -30 c-3 -5 -11 -10 -16 -10 -6 0 -7 5 -4 10 3 6 11 10 16 10 6 0 7 -4 4
-10z m-1392 -37 c2 6 4 0 4 -16 0 -20 -3 -25 -12 -17 -6 5 -15 8 -18 5 -4 -3
-5 -2 -2 2 3 3 -3 16 -12 27 -18 20 -18 20 9 3 20 -12 28 -13 31 -4z m667 -54
c0 -5 -4 -9 -10 -9 -5 0 -10 7 -10 16 0 8 5 12 10 9 6 -3 10 -10 10 -16z m442
-38 c63 -27 123 -88 155 -158 l17 -38 3 35 c6 58 10 63 35 41 12 -12 28 -21
35 -21 7 0 13 -5 13 -11 0 -6 11 -25 25 -44 14 -18 27 -48 29 -66 2 -19 9 -46
15 -62 18 -47 18 -148 -2 -186 -20 -40 -21 -45 -5 -35 7 5 9 2 6 -8 -3 -8 -2
-34 2 -59 14 -72 -25 -213 -73 -264 -10 -11 -24 -34 -32 -51 -16 -38 -98 -107
-121 -102 -10 2 -21 17 -27 37 -6 26 -11 31 -18 20 -5 -8 -9 -23 -9 -35 0 -50
-74 -134 -117 -134 -7 0 -13 -4 -13 -8 0 -5 -21 -18 -47 -29 -120 -52 -299
-71 -418 -44 -79 18 -236 60 -255 68 -8 4 -19 7 -25 8 -41 5 -82 20 -99 37
-12 11 -46 31 -76 45 -30 14 -68 36 -83 49 -16 13 -34 24 -40 24 -12 0 -86
119 -147 233 -28 53 -31 65 -26 125 3 37 12 99 21 137 9 39 20 93 25 121 23
120 87 211 207 291 89 60 132 73 228 67 44 -3 136 -7 205 -10 69 -3 143 -7
165 -10 22 -3 60 0 85 6 54 14 131 27 220 39 96 12 95 12 142 -8z m8 -1177 c0
-8 -5 -12 -10 -9 -6 4 -8 11 -5 16 9 14 15 11 15 -7z m-95 -14 c3 -5 1 -10 -4
-10 -6 0 -11 5 -11 10 0 6 2 10 4 10 3 0 8 -4 11 -10z m-55 -30 c0 -5 -5 -10
-11 -10 -5 0 -7 5 -4 10 3 6 8 10 11 10 2 0 4 -4 4 -10z m-85 -20 c3 -5 2 -10
-4 -10 -5 0 -13 5 -16 10 -3 6 -2 10 4 10 5 0 13 -4 16 -10z m42 4 c-3 -3 -12
-4 -19 -1 -8 3 -5 6 6 6 11 1 17 -2 13 -5z m596 -23 c7 -29 -18 -33 -43 -6
l-22 23 24 4 c30 5 34 3 41 -21z m-1123 -32 c0 -5 -4 -9 -10 -9 -5 0 -10 7
-10 16 0 8 5 12 10 9 6 -3 10 -10 10 -16z m265 1 c3 -5 -1 -10 -9 -10 -8 0
-18 5 -21 10 -3 6 1 10 9 10 8 0 18 -4 21 -10z m-575 -50 c0 -5 -5 -10 -11
-10 -5 0 -7 5 -4 10 3 6 8 10 11 10 2 0 4 -4 4 -10z"/>
<path d="M2307 2279 c-9 -5 -26 -28 -36 -49 -23 -48 -13 -105 25 -141 25 -24
84 -35 84 -16 0 6 6 18 14 26 7 9 18 30 23 46 13 38 -13 104 -50 128 -30 20
-36 20 -60 6z"/>
<path d="M1383 2241 c-18 -9 -32 -20 -31 -26 1 -5 -2 -18 -7 -28 -13 -31 3
-90 30 -114 59 -52 165 -9 165 67 0 87 -80 138 -157 101z"/>
<path d="M2146 2097 c3 -10 9 -15 12 -12 3 3 0 11 -7 18 -10 9 -11 8 -5 -6z"/>
<path d="M1867 2083 c-26 -7 -40 -49 -26 -76 18 -34 42 -58 66 -68 38 -14 15
-89 -29 -89 -10 0 -34 7 -53 14 -42 18 -45 6 -7 -24 22 -18 34 -21 67 -15 22
4 67 7 101 6 47 -1 66 3 85 18 31 25 18 39 -15 17 -32 -20 -55 -20 -84 0 -22
15 -32 74 -13 74 18 0 71 59 71 79 0 12 -11 33 -25 46 -19 20 -34 25 -72 24
-26 -1 -56 -3 -66 -6z"/>
<path d="M2170 2064 c0 -5 7 -19 15 -30 8 -10 15 -14 15 -8 0 5 -7 19 -15 30
-8 10 -15 14 -15 8z"/>
<path d="M2206 1973 c4 -21 8 -40 10 -42 1 -1 -1 -14 -6 -27 -6 -15 -6 -24 0
-24 9 0 15 27 12 60 -5 60 -7 70 -15 70 -4 0 -5 -17 -1 -37z"/>
<path d="M2180 1830 c-6 -11 -8 -20 -6 -20 3 0 10 9 16 20 6 11 8 20 6 20 -3
0 -10 -9 -16 -20z"/>
<path d="M682 1520 c-1 -19 -4 -53 -7 -75 l-5 -40 11 40 c5 22 8 56 6 75 l-4
35 -1 -35z"/>
<path d="M686 1235 c3 -27 10 -57 15 -65 12 -21 10 -3 -6 60 l-15 55 6 -50z"/>
<path d="M2910 1236 c0 -14 -4 -26 -8 -26 -16 0 -41 -57 -35 -79 3 -12 0 -33
-7 -46 -7 -13 -10 -33 -7 -44 3 -13 0 -21 -7 -21 -7 0 -12 -17 -13 -40 -2 -44
-1 -45 27 -30 39 21 92 285 61 304 -7 5 -11 -2 -11 -18z"/>
<path d="M2817 1159 c7 -7 15 -10 18 -7 3 3 -2 9 -12 12 -14 6 -15 5 -6 -5z"/>
<path d="M2722 1098 c11 -83 13 -87 27 -60 10 19 9 32 -4 73 -9 27 -20 49 -24
49 -4 0 -4 -28 1 -62z"/>
<path d="M2750 1144 c1 -24 26 -58 34 -45 3 5 0 12 -6 14 -8 3 -6 6 5 6 17 1
25 31 8 31 -5 0 -16 3 -25 6 -11 4 -16 0 -16 -12z"/>
<path d="M2727 965 c-12 -67 -40 -147 -63 -181 -18 -26 -19 -31 -5 -27 22 6
45 24 60 48 10 16 11 17 7 2 -5 -17 -4 -17 22 1 15 11 38 32 51 46 20 21 21
26 8 26 -9 0 -17 7 -17 15 0 8 -11 22 -24 31 -16 10 -26 27 -28 47 -4 32 -4
32 -11 -8z"/>
<path d="M1131 676 c2 -2 22 -6 44 -9 28 -5 34 -4 20 3 -19 8 -73 14 -64 6z"/>
</g>
</svg>
